<?xml version="1.0" standalone="no"?>
<!DOCTYPE svg PUBLIC "-//W3C//DTD SVG 20010904//EN"
 "http://www.w3.org/TR/2001/REC-SVG-20010904/DTD/svg10.dtd">
<svg version="1.0" xmlns="http://www.w3.org/2000/svg"
 width="4256.000000pt" height="2832.000000pt" viewBox="0 0 4256.000000 2832.000000"
 preserveAspectRatio="xMidYMid meet">
<metadata>
Created by potrace 1.16, written by Peter Selinger 2001-2019
</metadata>
<g transform="translate(0.000000,2832.000000) scale(0.100000,-0.100000)"
fill="#000000" stroke="none">
<path d="M0 14160 l0 -14160 10231 0 c10215 0 10230 0 10224 20 -5 15 -3 18 9
14 8 -3 17 -12 20 -20 5 -12 1507 -14 11041 -14 l11035 0 0 14160 0 14160
-21280 0 -21280 0 0 -14160z m17550 3790 c45 -23 49 -36 19 -74 -18 -23 -27
-26 -82 -26 -86 0 -107 7 -107 35 0 27 39 58 90 73 19 6 36 11 38 11 1 1 21
-8 42 -19z m1335 -589 c16 -27 -98 -69 -235 -87 -19 -2 -65 -9 -101 -16 -56
-9 -71 -8 -98 5 -24 12 -31 13 -31 2 0 -20 -27 -26 -41 -9 -9 11 -9 18 -1 26
20 20 116 48 165 48 52 0 136 17 151 31 12 11 184 10 191 0z m919 -507 c9 -3
13 -11 9 -17 -4 -6 4 -7 22 -3 25 6 27 5 16 -8 -11 -13 -9 -17 14 -26 14 -5
40 -10 56 -10 26 0 28 -2 17 -19 -8 -13 -21 -18 -42 -16 -17 1 -51 -4 -76 -11
-25 -8 -57 -14 -72 -14 -26 0 -26 1 -13 27 8 16 11 31 6 36 -10 10 -72 -7
-106 -29 -38 -24 -95 -17 -95 12 0 12 57 34 90 34 9 0 25 6 35 14 11 8 41 18
65 24 60 13 56 13 74 6z m-3655 -500 c2 -2 10 1 17 7 15 12 54 3 54 -12 0 -6
-9 -8 -19 -4 -16 5 -19 1 -18 -27 3 -47 -32 -61 -157 -62 -77 -1 -104 -5 -113
-16 -10 -13 -11 -13 -9 1 3 23 25 49 42 49 7 0 19 9 27 20 8 11 16 18 18 16 2
-2 24 6 49 18 39 19 92 24 109 10z m14045 -1219 c11 -8 36 -15 55 -16 20 0 45
-4 55 -8 18 -7 16 -9 -14 -19 -18 -7 -40 -12 -48 -12 -8 0 -33 -9 -56 -21
l-41 -20 -48 21 c-58 26 -63 54 -14 75 42 18 87 18 111 0z m-21394 -64 c0 -6
-5 -13 -12 -17 -14 -9 -139 -40 -233 -58 -38 -8 -83 -19 -98 -25 -16 -6 -44
-11 -63 -11 -61 0 -33 23 60 51 48 14 91 31 96 38 5 9 9 10 11 2 3 -8 20 -7
61 4 31 8 71 12 90 10 18 -2 40 0 48 5 19 12 40 13 40 1z m5513 -658 c-7 -3
-13 -14 -13 -24 0 -18 6 -20 76 -18 44 1 79 -2 82 -9 6 -9 47 -16 79 -13 7 1
10 7 7 15 -3 9 3 17 15 21 25 8 41 -1 41 -21 0 -8 9 -14 23 -13 12 0 16 3 10
6 -7 2 -13 16 -13 30 0 23 3 25 38 21 20 -3 44 -7 52 -10 8 -2 12 -3 7 -1 -11
7 2 23 19 23 9 0 22 -7 30 -15 21 -20 56 -19 170 6 89 19 98 19 113 5 14 -15
14 -19 1 -44 -12 -20 -25 -28 -50 -30 -19 -2 -49 -14 -66 -27 -26 -20 -31 -30
-28 -55 5 -46 12 -52 53 -49 45 4 58 -15 13 -19 -19 -2 -38 -11 -45 -23 -7
-11 -23 -19 -39 -19 -48 0 -58 -8 -45 -37 9 -21 8 -27 -8 -39 -10 -8 -27 -14
-37 -14 -10 0 -21 -7 -24 -15 -4 -8 -12 -15 -20 -15 -8 0 -14 7 -14 15 0 22
-13 18 -41 -11 -31 -33 -71 -54 -104 -54 -33 0 -55 -21 -55 -53 0 -16 -12 -34
-35 -52 -30 -22 -42 -26 -75 -20 -32 5 -40 3 -49 -14 -7 -11 -24 -27 -39 -35
l-27 -15 33 -1 c37 0 45 -25 12 -35 -24 -8 -100 3 -117 17 -6 5 -44 11 -85 12
-78 4 -144 29 -131 49 4 7 -1 6 -10 -2 -9 -7 -17 -10 -17 -5 0 11 -20 -18 -20
-28 0 -5 4 -7 9 -5 13 3 14 -8 7 -56 -6 -36 -12 -44 -45 -59 -55 -26 -61 -24
-57 22 2 22 1 40 -2 40 -4 -1 -23 -14 -42 -30 -19 -17 -44 -30 -57 -30 -12 0
-25 -4 -28 -10 -3 -5 -32 -10 -63 -10 -31 0 -79 -8 -107 -18 -44 -16 -50 -21
-47 -43 2 -20 -3 -27 -30 -37 -18 -6 -43 -9 -55 -6 -14 4 -23 2 -23 -5 0 -6
-5 -11 -10 -11 -19 0 -110 -65 -116 -83 -5 -17 -75 -55 -114 -64 -58 -13 -90
-14 -90 -4 0 6 7 11 15 11 8 0 15 7 15 15 0 9 11 20 25 25 14 5 25 14 25 20 0
5 12 12 28 16 15 4 36 12 47 19 11 7 45 20 76 29 74 21 100 43 89 74 -5 12
-18 22 -29 22 -11 0 -23 5 -26 10 -4 7 -12 7 -25 0 -42 -22 -255 -46 -266 -29
-6 10 12 13 74 9 24 -1 42 3 42 9 0 5 24 22 53 36 68 35 78 45 42 45 -75 -1
-195 -44 -195 -70 0 -6 -10 -10 -23 -10 -12 0 -31 -6 -42 -13 -29 -20 -110
-40 -132 -33 -13 4 -34 -3 -58 -20 -29 -19 -44 -24 -64 -18 -14 4 -31 6 -38 5
-17 -2 -27 19 -14 32 14 14 15 30 1 22 -5 -3 -10 -1 -10 4 0 6 7 11 16 11 27
0 10 22 -26 34 -31 10 -46 8 -130 -21 -56 -20 -123 -52 -162 -79 -58 -39 -68
-50 -68 -76 0 -17 10 -39 25 -53 l24 -25 -31 -16 c-30 -16 -31 -15 -53 13 -14
16 -20 32 -15 38 5 6 14 24 20 39 l11 29 -61 -6 c-33 -4 -60 -5 -60 -3 0 16
14 36 26 36 9 0 14 11 14 29 0 16 3 43 6 60 l7 31 -53 0 c-41 0 -51 3 -47 14
3 8 -1 20 -9 27 -9 8 -11 16 -5 22 13 13 31 0 31 -24 0 -22 1 -23 35 -7 17 8
24 17 20 28 -12 39 38 64 200 104 33 7 49 15 35 15 -19 1 -30 11 -44 41 -11
22 -16 43 -12 47 16 16 96 41 102 31 3 -5 -3 -12 -13 -14 -22 -6 -50 -71 -37
-84 8 -8 33 -5 120 15 16 3 21 13 22 36 1 39 4 41 33 31 39 -13 92 0 105 27
18 35 94 76 117 62 10 -7 17 -7 17 -2 0 17 73 33 82 18 6 -9 11 -8 19 6 12 20
84 57 111 57 11 0 16 -4 13 -10 -3 -5 1 -10 10 -10 9 0 14 4 11 9 -3 5 8 14
24 20 41 14 265 3 299 -15 14 -8 52 -14 84 -14 49 0 57 3 57 19 0 11 15 28 36
40 19 12 32 26 29 31 -3 6 2 10 12 10 15 0 16 2 3 10 -12 8 -11 10 8 10 12 0
22 5 22 10 0 6 9 10 21 10 11 0 17 -4 14 -10 -10 -16 15 -12 32 6 14 14 14 16
-3 29 -11 8 -27 13 -36 11 -9 -2 -19 3 -23 12 -5 14 -7 14 -15 2 -8 -13 -10
-13 -10 1 0 9 9 24 20 34 15 14 17 21 9 31 -8 10 -8 15 2 18 17 5 108 17 129
16 8 0 47 0 85 -1 39 0 77 -2 86 -5 21 -6 24 -64 3 -64 -8 0 -14 -7 -14 -15 0
-10 10 -15 26 -15 22 0 25 -2 14 -15 -9 -11 -16 -12 -26 -4 -10 8 -15 5 -20
-15 -3 -14 -10 -26 -16 -26 -5 0 -6 -4 -3 -10 10 -16 77 -12 110 6 17 9 42 23
57 31 19 10 25 19 21 33 -3 11 -9 23 -14 25 -4 3 -2 19 5 36 12 29 54 59 81
59 7 0 19 7 26 16 15 18 51 34 59 26 3 -2 -1 -7 -7 -9z m19251 -272 c39 -8 46
-30 9 -29 -53 1 -92 -12 -99 -35 -9 -30 -22 -37 -71 -37 -23 0 -45 -5 -49 -12
-4 -6 -3 -8 3 -5 6 4 13 -2 16 -13 4 -16 -1 -21 -27 -26 -45 -8 -89 -2 -94 14
-2 8 7 12 27 12 21 0 31 5 31 15 0 9 9 15 21 15 19 0 20 4 15 34 -7 38 6 54
57 66 39 10 121 10 161 1z m-6753 -52 c20 -10 20 -11 3 -30 -17 -18 -16 -19
34 -19 50 0 68 -12 37 -24 -22 -8 -18 -23 8 -30 21 -7 21 -7 2 -16 -11 -5 -53
-9 -94 -9 -63 -1 -72 -3 -61 -16 19 -23 -42 -55 -107 -55 -54 0 -59 5 -54 46
2 20 -29 24 -66 9 -51 -21 -73 -19 -126 15 -49 31 -55 41 -34 58 17 14 163 30
181 20 9 -5 30 -2 52 7 20 8 58 15 84 15 34 0 52 5 65 20 20 22 46 25 76 9z
m-4877 -93 c121 5 171 1 162 -15 -3 -5 -20 -11 -38 -14 -74 -12 -119 -25 -142
-41 -14 -9 -32 -16 -41 -16 -20 0 -20 -43 1 -74 15 -23 14 -24 -17 -31 -26 -6
-35 -3 -48 13 -21 27 -81 34 -81 10 0 -7 -9 -24 -20 -38 -16 -22 -30 -26 -102
-33 -46 -4 -110 -9 -143 -11 -101 -5 -175 -16 -195 -28 -23 -15 -37 -4 -22 15
16 19 5 27 -35 27 -19 0 -32 4 -29 9 3 5 -1 14 -10 21 -12 11 -22 9 -53 -8
l-38 -21 -36 19 c-20 11 -53 20 -73 20 -44 0 -42 25 2 26 78 1 184 19 223 37
34 16 47 18 61 9 12 -7 30 -8 52 -2 18 4 50 11 71 15 20 3 37 10 37 15 0 5 -8
7 -17 3 -10 -3 -15 -3 -11 2 4 4 -7 16 -25 25 -17 10 -34 25 -35 35 -3 14 1
16 25 11 59 -11 156 -11 160 1 2 6 -6 13 -19 15 -21 4 -22 5 -4 13 12 5 43 2
82 -8 78 -21 101 -21 112 0 6 9 28 19 53 23 35 5 47 3 59 -11 13 -16 29 -17
134 -13z m11344 -52 c43 -9 57 -20 54 -43 -2 -14 4 -24 22 -32 38 -18 38 -35
0 -61 -18 -12 -34 -30 -35 -38 0 -10 -2 -11 -6 -2 -2 6 -9 10 -14 6 -44 -27
109 -26 181 1 32 12 38 11 58 -6 29 -23 22 -36 -25 -45 l-36 -7 27 -14 c15 -8
24 -18 22 -22 -5 -8 47 -5 71 3 28 11 243 -28 243 -45 0 -14 -35 -19 -70 -9
-19 5 -65 7 -102 3 -45 -4 -72 -2 -81 6 -14 11 -65 0 -92 -19 -5 -4 -22 -10
-37 -12 -22 -4 -28 -1 -28 13 0 26 -16 32 -56 19 -87 -29 -135 -89 -85 -105
10 -3 31 -17 45 -30 15 -14 34 -25 42 -25 7 0 14 -4 14 -10 0 -5 -18 -10 -40
-10 -33 0 -40 3 -40 20 0 11 -6 20 -14 20 -8 0 -18 9 -21 20 -4 12 -15 20 -28
20 -19 0 -46 15 -129 71 -18 13 -36 17 -57 13 -17 -4 -29 -10 -26 -14 2 -4 -3
-14 -13 -22 -41 -37 -109 -35 -108 3 1 18 -5 22 -44 24 -64 4 -152 36 -145 53
3 7 0 23 -6 34 -10 18 -18 20 -77 15 -60 -4 -142 9 -142 23 2 45 140 69 175
30 24 -26 30 -25 98 10 32 17 69 30 82 30 18 0 23 4 18 16 -5 14 0 16 33 10
21 -3 46 -7 54 -8 22 -3 83 12 98 25 8 6 28 11 45 11 33 1 34 3 23 48 -6 25
-3 27 44 39 28 7 50 17 50 22 0 4 7 1 16 -7 8 -9 27 -18 42 -22z m-14369 -81
c12 -14 27 -23 34 -20 8 3 20 1 27 -3 9 -5 -4 -14 -40 -27 -53 -18 -73 -39
-50 -53 19 -11 7 -45 -17 -48 -12 -2 -27 5 -35 16 -10 14 -25 19 -63 18 -70
-1 -105 10 -105 33 0 17 -6 19 -36 15 -20 -3 -41 -7 -46 -10 -10 -7 -58 22
-58 35 0 4 21 11 46 15 26 3 53 11 60 17 11 9 14 8 14 -2 0 -7 9 -4 24 10 19
18 27 20 42 11 14 -8 28 -8 57 2 20 7 57 14 82 15 37 2 48 -2 64 -24z m11809
-20 c17 -4 20 -8 12 -18 -8 -10 -3 -16 23 -24 38 -13 67 -6 67 15 0 13 40 20
52 9 2 -3 3 -18 0 -34 -4 -27 -9 -31 -51 -37 -25 -4 -54 -15 -64 -25 -10 -11
-21 -19 -25 -20 -4 0 -38 -2 -76 -4 -38 -2 -92 -6 -120 -10 -50 -6 -50 -6 -23
9 15 8 42 31 61 50 18 20 48 43 67 51 l34 16 -58 -5 c-70 -6 -87 -1 -87 26 0
20 4 20 83 14 45 -4 92 -10 105 -13z m-24858 -73 c0 -5 -26 -21 -57 -36 -32
-14 -69 -34 -83 -44 -14 -10 -44 -21 -65 -25 -22 -4 -71 -16 -110 -26 -94 -24
-175 -29 -175 -9 0 6 6 10 13 10 6 0 43 16 81 35 38 19 94 41 125 50 31 9 63
19 71 22 28 11 45 15 100 23 83 11 100 11 100 0z m32563 -27 c-2 -9 8 -13 30
-12 30 1 31 1 7 9 -23 8 -24 8 -3 9 42 2 123 -48 123 -75 0 -19 -28 -26 -130
-35 -52 -4 -107 -11 -122 -14 -22 -6 -33 -1 -60 26 -69 70 -69 70 7 67 47 -2
69 1 72 10 3 6 -3 12 -12 12 -9 0 -13 5 -10 11 10 15 101 7 98 -8z m-21403
-88 c0 -24 46 -48 82 -42 76 13 98 20 98 28 0 5 5 9 11 9 16 0 4 -71 -13 -81
-7 -5 -13 -14 -14 -21 0 -7 -2 -21 -2 -30 -1 -10 -7 -18 -14 -18 -6 0 -21 -9
-33 -20 -19 -18 -26 -19 -49 -9 -19 9 -33 9 -49 2 -76 -35 -206 -60 -167 -32
12 9 11 9 -5 4 -11 -4 -31 -10 -44 -13 -23 -5 -22 -3 8 25 17 17 31 35 31 40
0 5 9 18 20 28 11 10 20 24 20 30 0 7 20 18 45 25 48 13 70 39 62 71 -3 10 -1
19 4 19 5 0 9 -7 9 -15z m-3962 -110 c7 -14 19 -28 27 -31 8 -4 15 -12 15 -20
0 -10 -21 -13 -92 -12 -85 2 -92 0 -101 -20 -13 -28 -38 -36 -70 -21 -21 10
-29 9 -42 -5 -20 -20 -45 -21 -45 -2 0 8 12 17 28 21 15 3 35 14 45 23 9 8 38
17 62 18 57 3 122 32 128 56 7 26 32 22 45 -7z m-1136 -191 c13 -8 9 -34 -8
-52 -23 -22 -81 -52 -102 -52 -10 0 -22 -4 -27 -9 -12 -11 -65 -3 -65 10 0 5
-8 5 -17 2 -14 -6 -14 -3 3 15 13 14 36 24 60 26 62 6 75 14 61 37 -6 10 -19
19 -27 20 -8 1 -4 4 10 9 25 7 96 3 112 -6z m1758 -234 c0 -5 20 -10 45 -10
59 0 62 -25 4 -33 -22 -3 -46 -13 -54 -23 -10 -15 -29 -18 -110 -20 -75 -1
-98 2 -102 13 -9 23 9 31 74 32 17 1 39 8 47 17 9 8 16 13 16 10 0 -3 15 1 33
9 39 17 47 18 47 5z m9339 -190 c8 -24 16 -30 40 -30 24 0 31 -4 31 -20 0 -15
-7 -20 -27 -20 -16 0 -42 -9 -59 -19 -31 -19 -134 -26 -134 -9 0 4 10 8 23 8
17 0 19 2 7 9 -8 6 -17 8 -21 5 -4 -2 -10 0 -14 6 -3 5 0 10 8 10 7 0 20 11
27 24 9 17 23 26 44 28 22 2 31 8 30 21 -3 30 33 20 45 -13z m14339 -241 c2
-5 10 -9 18 -9 7 0 39 -11 69 -25 62 -27 63 -38 6 -62 -39 -17 -191 -44 -203
-36 -5 2 -8 -1 -8 -6 0 -6 9 -11 20 -11 11 0 20 -5 20 -11 0 -6 -12 -9 -27 -7
-19 2 -27 8 -25 19 1 9 -5 20 -14 23 -26 10 0 33 46 41 l39 7 -16 33 c-23 49
-12 69 35 60 20 -4 39 -11 40 -16z m-19413 -39 c10 -11 15 -20 10 -20 -4 0 -1
-7 6 -16 12 -14 9 -20 -16 -41 -17 -13 -43 -35 -60 -49 -21 -17 -38 -24 -55
-20 -14 3 -40 0 -57 -7 -39 -13 -52 -4 -30 21 10 10 17 25 17 33 0 16 53 69
69 69 15 0 14 -17 -1 -23 -7 -2 -10 -8 -6 -12 16 -17 67 17 78 51 13 39 20 41
45 14z m10555 -55 c30 -2 129 -6 220 -10 91 -3 194 -8 230 -12 l65 -5 -55 -15
c-30 -7 -61 -20 -70 -28 -8 -7 -27 -16 -42 -20 -14 -4 -28 -15 -31 -26 -9 -35
-112 -14 -127 26 -10 27 -38 45 -58 38 -10 -4 -8 -9 7 -20 29 -20 26 -33 -7
-33 -20 0 -39 12 -65 40 -28 30 -44 40 -69 41 -18 0 -55 9 -83 19 l-50 19 40
-5 c22 -3 65 -7 95 -9z m3949 9 c44 -9 39 -24 -9 -24 -36 0 -40 -3 -40 -25 0
-18 -7 -26 -26 -31 -29 -8 -170 1 -198 12 -17 6 -16 8 5 20 13 7 32 13 41 14
11 0 15 5 12 15 -7 18 37 20 101 5 31 -7 43 -6 55 5 16 17 17 17 59 9z
m-21144 -244 c0 -12 -12 -15 -53 -13 -51 2 -54 1 -64 -27 -8 -24 -19 -32 -54
-41 -46 -12 -51 -18 -34 -35 8 -8 6 -15 -5 -24 -13 -11 -19 -11 -32 3 -15 15
-17 15 -28 -6 -8 -17 -24 -24 -68 -31 -44 -6 -65 -16 -92 -42 -41 -38 -45 -40
-45 -19 0 18 -8 18 -40 0 -14 -8 -37 -14 -53 -15 -19 0 -31 -7 -39 -25 -12
-26 -32 -33 -43 -15 -3 6 -21 10 -40 10 -19 0 -36 4 -39 8 -8 14 45 72 66 72
11 0 27 8 36 19 20 21 111 61 141 61 11 0 36 14 56 31 33 29 36 30 59 16 21
-14 26 -14 52 -1 16 8 37 13 47 10 10 -2 25 3 35 13 9 9 43 25 75 35 31 9 57
21 57 26 0 12 29 17 70 10 22 -3 35 -11 35 -20z m13705 -72 c14 -11 25 -23 25
-26 0 -4 4 -12 8 -19 4 -6 1 -18 -8 -26 -13 -13 -12 -17 8 -30 21 -13 20 -14
-27 -21 -31 -5 -63 -19 -93 -42 -24 -19 -49 -34 -55 -34 -5 0 -21 -9 -35 -20
-27 -21 -78 -27 -88 -10 -3 6 -37 10 -74 10 -47 0 -80 6 -109 20 -50 24 -92
62 -92 82 0 16 56 45 77 40 6 -1 14 2 17 7 9 14 66 -8 66 -25 0 -7 -9 -18 -20
-24 -26 -14 -17 -30 16 -30 16 0 27 7 33 22 6 16 17 23 38 24 16 1 45 9 64 18
19 9 48 17 64 18 29 2 75 29 77 45 1 11 50 40 68 40 8 0 26 -9 40 -19z m-7798
-97 c4 -11 66 -16 88 -8 43 15 62 15 81 -4 11 -11 23 -18 27 -15 5 3 14 0 22
-6 13 -8 12 -9 -1 -5 -11 4 -28 -8 -49 -33 -25 -30 -44 -41 -82 -50 -28 -5
-62 -19 -77 -29 -43 -31 -78 -36 -90 -13 -5 10 -7 28 -4 40 3 13 1 22 -6 22
-6 0 -11 9 -11 20 0 11 5 20 10 20 6 0 19 9 30 20 11 11 27 20 35 20 18 0 20
16 3 23 -8 4 -7 6 4 6 9 1 18 -3 20 -8z m19585 -136 c141 -51 280 -70 308 -42
15 16 15 18 0 33 -25 25 -4 37 40 22 40 -13 59 -38 30 -38 -9 0 -13 -4 -10
-10 3 -5 14 -10 23 -10 9 0 24 -5 32 -10 13 -8 12 -11 -5 -24 -11 -9 -32 -16
-47 -16 -36 0 -35 -12 3 -45 17 -14 30 -27 28 -28 -26 -18 -63 -26 -80 -17
-25 14 -24 23 2 15 14 -5 19 -3 15 3 -3 6 -44 10 -95 10 -69 -1 -98 3 -128 18
-32 16 -62 19 -193 20 -152 1 -219 12 -205 35 4 5 32 9 63 8 83 -2 192 15 192
30 0 5 -19 23 -42 40 -34 25 -38 31 -21 31 12 0 53 -11 90 -25z m-4472 -81
c17 -9 51 -22 76 -30 58 -18 83 -42 51 -51 -12 -3 -19 -9 -16 -14 17 -28 -112
-7 -162 26 -77 50 -31 113 51 69z m-30910 -134 c-17 -27 -93 -64 -138 -67 -27
-1 -55 -9 -63 -18 -15 -15 -104 -45 -134 -45 -9 0 -39 -11 -66 -25 -61 -31
-75 -32 -70 -2 2 12 8 21 14 20 5 -1 9 5 8 15 -1 13 8 17 35 18 20 1 50 10 66
22 16 11 42 24 59 28 16 3 34 12 39 19 22 27 53 34 122 28 44 -3 77 -1 89 5
24 14 47 15 39 2z m2279 -169 c8 -12 -32 -37 -72 -46 -19 -4 -49 -20 -67 -36
-19 -17 -59 -36 -92 -45 -65 -18 -167 -24 -180 -10 -8 8 28 38 51 42 58 11
146 40 165 55 13 11 31 19 40 19 10 0 22 5 29 12 9 9 18 9 38 -1 22 -10 30 -9
48 3 25 18 33 19 40 7z m5884 -81 c27 -22 23 -34 -19 -55 -25 -13 -28 -20 -23
-42 6 -22 4 -25 -10 -20 -25 10 -46 -3 -46 -28 0 -31 -22 -37 -60 -18 -29 14
-35 14 -81 -5 -48 -20 -49 -20 -49 -2 0 13 -9 22 -25 26 -46 12 -25 44 30 44
12 0 28 7 35 15 11 13 7 15 -25 15 -29 0 -35 3 -27 13 13 15 118 22 126 8 12
-19 70 1 104 36 38 38 39 39 70 13z m-888 -67 c9 -12 20 -19 24 -16 3 4 6 1 6
-5 0 -6 -9 -14 -21 -17 -15 -5 -18 -10 -10 -18 14 -14 14 -37 0 -37 -6 0 -22
-9 -36 -20 -23 -18 -36 -19 -136 -15 -60 3 -118 10 -128 15 -15 8 -45 15 -91
19 -3 1 -4 9 -1 19 2 10 -3 24 -11 31 -9 8 -16 17 -16 21 0 4 33 12 73 19 39
7 81 17 92 22 11 5 69 8 128 6 99 -2 110 -4 127 -24z m4866 -473 c15 -15 146
-15 171 0 20 13 24 12 37 -5 17 -23 21 -45 7 -45 -5 0 -23 -14 -40 -31 -27
-27 -31 -36 -25 -65 5 -26 3 -34 -8 -34 -22 0 -28 11 -18 30 8 16 6 18 -18 15
-46 -6 -60 4 -86 61 -18 40 -30 54 -45 54 -21 0 -27 11 -14 23 9 10 27 9 39
-3z m-2436 -92 c9 1 29 -9 45 -23 19 -18 26 -21 21 -9 -6 14 -2 16 31 10 21
-3 50 -6 66 -6 22 0 27 -4 27 -25 0 -15 6 -25 15 -25 9 0 12 -6 9 -15 -4 -10
0 -15 14 -15 20 0 37 -25 27 -40 -3 -5 -19 -11 -36 -15 -18 -4 -34 -16 -38
-28 -5 -12 -18 -31 -30 -41 -27 -24 -27 -48 1 -65 21 -13 21 -14 3 -27 -23
-17 -57 -18 -73 -2 -8 8 -15 8 -26 -1 -12 -10 -21 -9 -45 4 -17 8 -31 20 -31
25 0 6 -10 8 -22 5 -13 -3 -36 -1 -53 3 -23 7 -29 14 -27 31 3 19 0 21 -22 15
-20 -5 -26 -2 -26 10 0 9 5 16 10 16 6 0 10 -4 10 -8 0 -5 13 -7 30 -4 16 2
27 9 24 14 -4 5 -14 8 -24 5 -13 -3 -17 0 -13 9 3 8 11 14 19 14 27 0 14 18
-16 22 -22 3 -30 1 -30 -11 0 -11 -3 -12 -11 -4 -16 16 -7 48 13 48 10 0 23 6
30 13 6 6 22 12 35 12 17 0 23 6 23 23 0 13 5 28 12 35 8 8 8 15 -2 27 -10 12
-10 18 0 30 10 12 15 13 28 3 8 -7 23 -12 32 -10z m18519 -205 c21 -14 22 -17
7 -25 -9 -5 -44 -8 -79 -7 -34 1 -90 1 -123 0 -49 0 -65 3 -79 19 -10 11 -15
26 -11 35 5 14 17 15 73 10 38 -4 79 -2 93 3 26 10 70 -3 119 -35z m-3869
-118 c9 -11 10 -19 3 -26 -8 -8 -2 -19 18 -39 l29 -27 -40 -28 c-22 -15 -40
-32 -40 -36 0 -13 -36 -11 -73 5 -48 20 -77 50 -77 79 0 16 -7 26 -20 30 -11
3 -20 10 -20 16 0 7 8 7 26 1 18 -7 33 -6 55 6 17 8 37 13 45 10 8 -3 13 -2 9
3 -13 23 67 28 85 6z m3790 0 c29 -16 96 -20 105 -5 8 13 34 -11 29 -27 -2 -7
-7 -21 -10 -30 -4 -10 -8 -27 -9 -37 -1 -11 -7 -22 -13 -24 -22 -7 -12 -22 13
-22 26 0 34 15 13 23 -7 2 -10 7 -7 11 6 7 78 -44 79 -56 0 -5 -7 -8 -15 -8
-8 0 -15 -4 -15 -10 0 -5 5 -10 10 -10 6 0 10 -8 10 -17 0 -15 2 -16 10 -3 8
13 14 13 44 -4 31 -16 48 -18 123 -12 l88 6 39 -35 c33 -29 47 -35 83 -35 70
0 85 -13 79 -67 -4 -38 -1 -51 20 -78 25 -33 23 -45 -8 -45 -10 0 -18 -5 -18
-11 0 -7 -7 -17 -16 -24 -18 -13 -18 -14 38 -55 16 -13 25 -27 21 -35 -3 -9 1
-15 8 -15 7 0 24 -11 38 -24 32 -29 119 -44 127 -21 5 11 20 13 64 11 74 -5
85 -11 65 -38 -10 -15 -11 -25 -4 -34 7 -8 6 -14 -1 -19 -8 -5 -2 -14 15 -25
17 -11 23 -20 16 -24 -21 -13 -12 -56 13 -66 31 -11 45 -37 44 -78 -1 -32 -3
-33 -61 -46 -20 -5 -27 -11 -23 -21 7 -20 -39 -20 -78 0 -15 8 -47 15 -71 15
-28 0 -51 7 -69 21 -22 18 -29 19 -42 8 -14 -12 -14 -15 6 -31 38 -31 22 -53
-40 -56 -30 -2 -57 -7 -60 -12 -10 -16 -93 20 -130 54 -46 44 -71 56 -115 56
-20 0 -45 4 -55 10 -10 5 -50 13 -90 16 -44 4 -66 10 -58 15 7 5 11 9 8 10
-114 21 -128 49 -49 98 57 35 91 36 153 4 26 -14 28 -17 14 -27 -15 -11 -15
-13 1 -23 13 -8 22 -8 29 -1 14 14 66 1 88 -23 20 -22 40 -24 59 -6 11 11 33
7 129 -25 111 -37 117 -38 141 -22 18 12 36 15 66 10 34 -5 40 -4 37 11 -2 11
6 19 22 24 29 8 27 9 -19 14 -24 2 -43 13 -64 36 l-29 34 -15 -22 c-9 -13 -24
-23 -33 -23 -10 0 -27 -12 -39 -27 l-20 -28 -31 34 c-27 30 -30 37 -21 58 6
13 19 26 28 29 10 3 33 11 51 18 l33 12 -24 26 c-15 17 -39 28 -69 32 -53 8
-81 31 -57 47 9 7 -5 9 -46 8 -39 -1 -80 6 -119 20 -33 11 -78 21 -100 21 -23
0 -57 5 -77 10 -32 9 -40 7 -61 -11 -22 -19 -35 -22 -117 -20 -91 2 -146 15
-135 32 3 5 16 9 28 9 16 0 26 7 29 22 8 28 -10 62 -26 50 -22 -17 -54 -20
-108 -10 -60 11 -95 16 -122 17 -10 1 -17 7 -14 14 2 6 14 11 25 11 25 -2 27
4 8 29 -13 17 -16 17 -45 3 -54 -28 -100 -16 -115 32 -9 26 -69 62 -105 62
-35 0 -71 15 -71 30 0 6 20 10 44 10 49 0 69 16 69 56 0 21 3 25 26 22 20 -2
25 -8 24 -25 -2 -13 2 -23 7 -23 6 0 10 -6 10 -14 0 -13 15 -15 62 -7 4 0 0
13 -8 29 -33 64 -6 109 64 103 18 -1 32 2 32 8 0 6 -5 11 -11 11 -5 0 -8 4 -5
9 3 4 -6 19 -19 31 -14 13 -25 32 -25 42 0 16 10 18 103 18 92 1 100 2 83 15
-16 12 -17 15 -4 15 8 0 21 7 28 15 16 19 77 19 110 0z m936 -21 c58 -28 38
-46 -40 -37 -46 4 -47 4 -36 -17 9 -17 8 -26 -3 -43 -10 -16 -12 -30 -4 -58 8
-33 14 -38 53 -48 29 -8 44 -17 44 -27 0 -11 6 -15 20 -11 13 3 20 0 20 -9 0
-8 10 -14 22 -14 21 0 21 0 2 16 -19 15 -19 16 1 9 54 -19 85 -22 102 -10 18
12 155 16 167 4 3 -3 -4 -24 -16 -48 -19 -39 -23 -42 -57 -39 -26 2 -39 9 -46
25 -13 31 -40 35 -171 27 -133 -8 -148 -17 -113 -65 l22 -32 -59 5 c-88 6
-170 65 -114 83 23 7 60 64 60 94 0 14 -11 28 -30 39 -36 20 -34 36 4 40 24 3
27 7 22 27 -7 29 2 55 20 55 7 0 11 6 8 13 -3 8 8 17 28 23 48 16 56 16 94 -2z
m-23034 -18 c18 5 20 3 16 -21 -4 -20 -1 -28 14 -34 18 -6 18 -9 -8 -36 l-28
-30 -9 35 c-6 21 -12 29 -15 20 -3 -8 -13 -23 -24 -34 -16 -18 -17 -21 -2 -29
9 -5 29 -7 45 -5 20 3 29 0 29 -9 0 -7 -6 -13 -14 -13 -7 0 -16 -9 -19 -20 -3
-11 -11 -20 -19 -20 -7 0 -19 -14 -26 -32 -9 -25 -14 -30 -24 -20 -17 17 -52
15 -90 -7 -18 -11 -46 -22 -63 -24 -74 -13 -91 -20 -100 -40 -6 -14 -24 -26
-47 -31 -26 -6 -38 -15 -38 -27 0 -9 -6 -21 -12 -27 -19 -15 -68 -3 -68 17 -1
14 -2 14 -14 -1 -7 -10 -18 -18 -25 -18 -14 0 -37 -47 -28 -57 4 -3 32 4 63
16 31 12 59 19 61 17 3 -2 -5 -18 -18 -35 -18 -24 -27 -29 -50 -24 -21 4 -30
0 -40 -18 l-12 -23 -8 22 c-8 22 -10 22 -39 7 -34 -18 -40 -30 -10 -22 23 6
37 -10 22 -25 -6 -6 -29 -14 -51 -18 -35 -6 -41 -5 -39 9 2 9 -4 16 -12 16 -8
0 -16 -9 -16 -20 -1 -11 -2 -26 -3 -34 -1 -10 -10 -12 -32 -7 -42 8 -121 -26
-113 -48 3 -9 2 -16 -4 -16 -6 0 -12 6 -15 13 -3 8 -8 9 -15 2 -7 -6 -8 -23
-3 -46 l8 -37 -50 -10 c-44 -9 -50 -8 -54 9 -4 16 -9 17 -27 7 -11 -6 -24 -15
-27 -20 -6 -10 -71 -14 -85 -5 -11 6 -102 -16 -134 -33 -12 -7 -32 -9 -43 -6
-13 3 -29 -2 -42 -14 -30 -28 -123 -62 -131 -48 -4 6 1 15 10 20 22 12 20 25
-4 31 -40 10 -39 87 1 87 17 0 19 -4 13 -22 -6 -19 -4 -21 7 -12 23 18 48 24
54 13 4 -5 -4 -13 -17 -18 -18 -7 -13 -8 22 -6 33 1 44 6 42 16 -2 8 -8 16
-13 17 -5 2 -15 10 -23 17 -7 8 -25 17 -39 20 l-26 7 20 21 c18 19 31 22 122
23 128 1 127 1 127 19 0 8 5 15 10 15 6 0 10 8 10 18 0 10 6 26 13 36 12 16
14 16 26 -6 15 -29 71 -54 71 -33 0 8 20 23 44 33 24 11 47 25 50 31 4 6 24
18 43 26 20 9 66 40 103 70 37 30 74 55 83 55 9 0 21 8 26 18 5 10 21 24 35
31 23 13 24 15 9 37 -10 16 -25 24 -44 24 -42 0 -44 17 -8 51 17 16 39 44 48
62 11 23 34 41 81 64 36 18 74 43 85 57 22 27 45 34 45 14 0 -7 -12 -25 -27
-41 -19 -20 -22 -28 -11 -24 10 3 20 2 23 -4 4 -5 21 -7 38 -4 25 5 35 2 44
-14 11 -17 10 -19 -1 -15 -8 3 -17 1 -21 -5 -3 -6 -28 -11 -56 -11 -27 0 -49
-5 -49 -10 0 -6 10 -8 23 -6 12 3 55 8 95 10 41 3 80 10 87 16 8 7 23 9 35 5
12 -4 20 -2 20 5 0 6 8 14 18 17 9 4 28 15 41 25 13 10 32 18 42 18 10 0 25
11 34 23 17 26 61 51 75 42 5 -3 12 0 17 7 5 10 8 8 11 -5 3 -13 9 -16 24 -11z
m22595 -51 c13 -3 22 -11 20 -17 -1 -6 21 -18 48 -27 54 -16 56 -14 -34 -36
l-34 -8 23 -17 c13 -10 20 -22 16 -29 -11 -18 -41 -13 -62 10 -18 20 -18 21 1
35 18 13 18 15 2 32 -11 10 -20 13 -25 7 -4 -5 -18 -12 -32 -14 -14 -1 -28 -7
-31 -12 -6 -10 -112 -5 -129 6 -5 3 -10 12 -10 20 0 10 9 11 38 4 60 -14 79
-11 85 12 5 18 11 20 36 14 27 -6 31 -4 31 15 0 16 5 20 18 16 9 -2 27 -7 39
-11z m-5622 -19 c45 -2 67 -6 128 -23 35 -9 9 -15 -80 -17 -48 -1 -114 -9
-146 -19 -69 -20 -103 -22 -114 -4 -4 6 -17 17 -28 23 -11 6 -20 17 -20 25 0
16 105 30 170 22 22 -3 63 -6 90 -7z m8026 -118 c3 -4 38 -17 77 -28 67 -19
75 -19 102 -5 45 23 95 8 95 -28 -1 -17 6 -29 16 -32 22 -7 52 -52 43 -66 -7
-12 -128 -2 -157 13 -28 14 -8 31 29 25 19 -3 34 -3 34 1 0 13 -38 41 -63 47
-22 6 -24 3 -26 -47 l-2 -53 56 -30 c55 -30 68 -45 40 -45 -9 0 -18 -7 -22
-16 -4 -12 -14 -14 -42 -9 -50 9 -123 45 -118 58 3 11 -95 57 -122 57 -8 0
-25 9 -37 21 -12 11 -37 28 -55 38 -40 22 -47 37 -20 46 12 3 21 12 21 20 0
17 20 24 54 18 20 -4 31 0 42 15 14 20 41 20 55 0z m-19166 -80 c-1 -37 0 -38
35 -38 52 0 85 -42 43 -53 -10 -3 -1 -6 20 -7 51 -3 54 -4 62 -12 11 -11 -27
-46 -57 -53 -37 -9 -35 -18 7 -33 23 -9 32 -17 28 -28 -3 -8 3 -24 12 -34 10
-11 15 -23 11 -27 -11 -11 -41 13 -38 31 2 10 -4 16 -17 16 -11 0 -26 3 -35 6
-12 5 -16 0 -16 -17 -1 -24 -1 -24 -16 -4 -9 12 -11 21 -4 23 5 2 10 8 10 14
0 13 -56 68 -69 68 -5 0 -23 -14 -40 -32 -25 -26 -32 -30 -45 -19 -16 13 -56
0 -56 -20 0 -5 -11 -14 -25 -19 -43 -16 -95 -64 -95 -86 0 -12 6 -15 24 -10
16 4 29 0 40 -13 17 -18 16 -20 -6 -26 -13 -4 -26 -12 -30 -18 -4 -7 -11 -7
-20 0 -7 6 -24 9 -39 6 -20 -4 -28 -14 -38 -49 -8 -25 -11 -47 -8 -50 5 -5 18
-6 81 -2 42 3 61 -16 27 -27 -10 -3 -24 -19 -30 -35 -11 -34 -58 -79 -81 -80
-9 0 -26 7 -38 16 -18 13 -21 19 -11 30 9 11 7 14 -13 14 -34 0 -37 -6 -23
-46 13 -40 29 -54 61 -54 11 0 35 -15 53 -34 32 -33 32 -35 13 -45 -10 -6 -22
-7 -26 -4 -3 4 -26 7 -50 7 -38 1 -43 -1 -35 -16 6 -11 5 -19 -3 -24 -6 -4
-14 -2 -16 4 -6 19 -22 14 -22 -7 0 -11 -8 -22 -17 -24 -10 -3 10 -6 45 -7 34
-2 68 -3 75 -4 6 -1 11 7 9 17 -6 35 105 62 148 35 15 -10 26 -10 53 0 18 7
41 12 50 12 8 0 19 9 22 20 4 11 24 34 46 52 25 20 39 40 39 55 0 19 5 23 30
23 22 0 28 4 24 15 -4 8 -4 22 0 30 4 12 9 13 24 4 25 -15 80 -3 63 14 -22 22
-13 40 18 34 19 -4 33 -1 41 8 6 8 18 11 25 9 8 -3 23 6 35 19 19 22 26 24 53
16 66 -19 63 -32 -20 -74 -59 -31 -79 -47 -90 -72 -7 -18 -20 -33 -29 -33 -8
0 -12 -4 -9 -10 6 -10 73 -11 80 0 2 4 23 4 47 1 38 -5 43 -9 46 -33 4 -33 -1
-34 -38 -8 l-29 21 -15 -23 c-8 -13 -18 -35 -21 -50 -7 -28 -28 -37 -40 -17
-4 5 -18 14 -31 19 -29 11 -32 30 -4 30 12 0 20 7 20 16 0 12 -3 14 -12 6 -7
-5 -27 -13 -45 -16 -17 -4 -37 -14 -44 -22 -6 -8 -27 -14 -46 -14 -19 0 -41
-7 -49 -15 -9 -8 -29 -15 -45 -15 -22 0 -29 -5 -29 -20 0 -11 5 -20 10 -20 16
0 12 -21 -7 -43 -17 -20 -17 -20 2 -12 11 4 37 8 58 9 25 1 42 7 48 18 21 38
209 62 240 31 13 -13 -44 -63 -73 -63 -11 0 -39 -14 -63 -31 -37 -27 -49 -30
-82 -25 -21 3 -62 9 -90 12 -55 7 -53 8 -57 -38 -1 -12 28 -19 76 -18 25 0 58
-34 45 -47 -3 -2 -33 -6 -67 -8 -34 -3 -70 -7 -79 -10 -22 -7 -50 -64 -47 -95
2 -22 6 -24 42 -22 41 4 66 24 57 48 -4 10 3 14 28 13 32 -1 32 -2 9 -9 -19
-6 -9 -8 38 -9 48 -1 64 -5 69 -17 9 -23 -10 -69 -28 -68 -9 1 -14 -9 -15 -25
0 -14 -2 -37 -5 -51 -4 -23 -1 -25 39 -28 29 -2 42 0 37 7 -9 16 41 61 68 61
13 0 36 -9 50 -20 21 -17 26 -18 31 -5 7 20 43 19 54 -1 8 -14 15 -15 43 -6
19 6 56 13 83 17 l49 7 -8 -29 c-3 -15 -16 -36 -26 -46 -22 -21 -22 -58 0 -65
8 -3 11 0 7 7 -5 8 9 11 44 11 37 0 61 6 81 21 32 23 30 35 -8 50 -19 7 -24
15 -21 36 2 23 10 29 43 36 22 4 55 7 74 4 27 -3 30 -1 17 8 -23 17 -20 39 7
50 12 6 23 20 25 31 2 16 15 25 47 34 48 13 65 8 65 -20 0 -10 7 -20 15 -24
23 -9 18 -50 -10 -76 -14 -13 -25 -31 -25 -40 0 -12 -11 -20 -32 -24 -38 -7
-118 -39 -118 -46 0 -3 5 -12 11 -20 8 -11 12 -12 16 -2 7 17 43 15 43 -3 0
-8 -8 -24 -17 -35 -14 -15 -25 -18 -54 -14 -32 5 -38 3 -44 -15 -9 -30 -38
-42 -83 -35 -28 4 -41 2 -51 -9 -10 -13 -9 -17 8 -27 25 -13 29 -65 7 -77 -14
-8 -16 -12 -16 -33 0 -14 -37 -12 -47 2 -4 7 -7 21 -8 32 0 13 -8 20 -26 22
-15 1 -41 10 -57 18 -38 20 -79 20 -112 1 -28 -16 -115 -21 -105 -6 3 5 -9 11
-27 13 -29 3 -33 6 -30 28 2 14 3 42 3 63 -1 34 2 37 19 32 15 -5 20 -2 20 13
0 16 -9 21 -50 26 -57 8 -77 1 -60 -19 7 -8 9 -19 5 -25 -11 -18 -35 -11 -45
15 -16 41 -28 28 -26 -29 1 -54 1 -54 28 -49 31 6 48 -18 29 -40 -7 -10 -5
-18 9 -30 11 -9 20 -12 20 -7 0 13 37 13 45 0 3 -6 -1 -13 -9 -16 -24 -9 -19
-19 11 -22 34 -3 61 -28 47 -42 -6 -6 -37 -16 -70 -23 -37 -7 -65 -19 -76 -33
-10 -12 -31 -24 -48 -27 -27 -6 -30 -10 -24 -31 6 -24 4 -25 -33 -20 -28 4
-34 3 -23 -5 8 -6 32 -11 53 -11 29 0 37 -4 36 -17 0 -11 -3 -13 -6 -5 -5 13
-24 17 -22 5 4 -27 -20 -39 -118 -58 -23 -5 -33 -12 -33 -24 0 -10 -9 -26 -20
-36 -11 -10 -20 -28 -20 -39 -1 -30 -25 -58 -47 -54 -10 1 -29 -6 -43 -16 -14
-11 -18 -16 -7 -13 9 4 17 3 17 -2 0 -20 -40 -18 -54 3 l-15 21 0 -21 c-1 -29
-21 -43 -62 -47 -39 -3 -49 -32 -12 -32 27 -1 34 -19 9 -23 -10 -2 -27 6 -38
18 -11 12 -27 19 -35 16 -9 -4 -22 -1 -29 5 -11 9 -14 8 -14 -5 0 -9 5 -16 11
-16 5 0 7 -4 4 -10 -3 -5 -2 -10 4 -10 5 0 11 5 13 12 2 6 12 9 21 5 14 -5 15
-9 1 -36 -17 -33 -43 -46 -80 -37 -21 6 -24 12 -24 51 0 24 -5 47 -11 50 -17
11 -24 -5 -11 -26 10 -16 10 -24 1 -35 -9 -11 -9 -17 1 -29 10 -12 10 -15 -3
-15 -29 0 -37 -24 -18 -56 22 -37 78 -66 133 -68 15 -1 35 -13 47 -26 11 -14
20 -19 21 -12 0 6 11 12 25 12 13 0 39 9 57 20 18 11 46 20 61 20 15 0 41 7
58 15 28 15 32 14 59 -5 16 -11 34 -19 41 -18 7 2 16 -12 20 -32 7 -30 4 -41
-19 -74 -34 -47 -83 -66 -172 -66 -61 0 -65 -2 -96 -36 -26 -31 -35 -36 -58
-30 -33 8 -34 32 -1 40 17 4 25 13 25 27 0 20 -4 21 -51 17 -47 -5 -55 -2
-102 33 -51 39 -82 89 -74 121 3 10 -5 23 -19 33 -13 8 -24 24 -24 34 0 16 -6
18 -45 13 -37 -4 -45 -2 -45 12 0 13 18 26 56 41 1 0 5 10 8 22 6 18 2 22 -25
28 -19 4 -33 15 -36 26 -6 23 -13 24 -39 4 -10 -8 -34 -15 -52 -15 l-33 0 27
25 c29 27 58 75 45 75 -4 0 -12 16 -18 35 -10 32 -9 37 14 55 14 11 30 20 36
20 5 0 4 7 -3 15 -14 17 -51 20 -65 6 -24 -22 -54 -21 -79 2 -28 27 -33 43
-13 50 6 3 1 6 -12 6 -13 1 -22 -2 -18 -5 3 -3 -5 -18 -18 -32 -30 -32 -24
-42 23 -42 46 -1 90 -37 108 -88 10 -32 10 -40 -3 -54 -33 -36 -94 -10 -63 27
12 15 6 35 -11 35 -6 0 -17 7 -25 15 -8 8 -30 17 -49 21 -27 5 -40 1 -67 -19
-33 -26 -88 -28 -88 -4 0 7 -4 7 -12 -1 -17 -17 -31 -15 -54 6 -35 33 -104 37
-104 6 0 -8 -7 -14 -15 -14 -8 0 -15 5 -15 11 0 7 -12 9 -32 5 -18 -3 -59 -9
-90 -12 -51 -6 -59 -4 -80 18 -13 13 -35 29 -50 36 -27 11 -38 32 -18 32 17 0
11 29 -8 39 -10 5 -33 7 -53 5 -25 -4 -41 0 -58 15 l-23 20 -44 -25 c-32 -19
-51 -24 -73 -19 -22 5 -30 2 -35 -12 -7 -17 -8 -17 -17 0 -12 20 -42 22 -57 4
-6 -7 -9 -32 -8 -55 3 -33 -1 -45 -15 -53 -23 -12 -25 -45 -2 -57 14 -9 14
-10 -6 -17 -12 -4 -26 -18 -32 -32 -9 -24 -10 -24 -34 -9 -13 9 -31 16 -40 16
-27 0 -16 20 15 27 23 4 30 11 30 28 0 13 7 25 15 29 16 6 21 26 7 26 -5 0
-19 -9 -32 -20 -13 -11 -26 -20 -29 -20 -3 0 -23 20 -44 45 -37 42 -40 44
-100 47 -57 3 -62 5 -62 25 0 13 -3 23 -7 23 -38 1 -46 -3 -51 -20 -6 -23 -45
-40 -92 -40 -19 0 -37 -5 -40 -10 -4 -6 -12 -10 -18 -9 -7 1 -20 -1 -29 -5
-10 -5 -25 -6 -33 -2 -20 7 -19 36 1 36 11 0 15 6 11 19 -5 21 10 31 44 31 11
0 43 7 71 17 41 13 54 14 70 4 14 -9 24 -9 31 -2 7 7 2 12 -17 17 -14 3 -26 8
-26 9 0 15 15 35 25 35 7 0 18 7 25 15 10 12 7 15 -14 21 -14 3 -30 12 -36 19
-6 7 -20 11 -30 8 -16 -4 -20 0 -20 19 0 13 4 28 9 34 5 5 11 27 13 49 l3 39
-94 4 c-52 1 -110 9 -129 17 -19 8 -44 15 -55 15 -20 0 -20 0 -1 15 10 8 39
21 64 30 47 16 82 61 59 76 -18 10 -3 26 31 33 17 3 29 10 26 15 -6 9 -51 8
-78 -4 -25 -10 -60 -2 -72 17 -8 14 -6 22 12 38 24 23 62 20 62 -5 0 -10 11
-9 51 6 28 11 60 17 71 14 10 -4 26 -1 34 6 11 9 18 8 33 -5 17 -16 21 -16 52
3 79 47 99 54 137 46 83 -16 101 -15 112 5 7 13 21 20 38 20 16 0 33 5 39 11
6 6 32 11 57 11 39 -1 48 3 68 29 64 86 125 129 182 129 37 0 38 1 23 18 -23
25 -21 32 8 32 16 0 23 5 19 13 -2 7 2 21 9 31 11 15 21 17 50 12 23 -4 37
-13 37 -21 0 -18 19 -19 43 -1 25 19 21 26 -13 26 -25 0 -30 4 -30 25 0 19 -7
26 -37 34 -21 6 -48 11 -59 11 -13 0 -24 8 -27 19 -6 24 0 31 25 31 10 0 32 9
47 21 39 28 93 31 100 4 3 -11 13 -20 21 -20 8 0 14 -6 12 -13 -2 -10 2 -11
15 -4 19 11 123 4 137 -9 6 -5 16 -3 25 5 9 8 25 16 36 18 16 3 19 10 17 35
-4 33 13 52 30 35 6 -6 11 -21 12 -34 1 -13 7 -23 16 -23 8 0 14 7 12 16 -1
12 13 21 52 33 58 19 73 41 60 92 -5 20 0 32 25 56 21 20 30 37 26 49 -4 12 1
19 15 24 26 8 33 2 35 -27 1 -18 10 -24 44 -31 37 -7 48 -5 82 17 21 14 41 26
44 26 12 0 4 -28 -10 -34 -8 -3 -15 -13 -15 -21 0 -9 5 -13 11 -9 7 4 9 0 5
-14 -10 -30 9 -35 55 -14 24 11 37 22 30 26 -29 18 1 64 62 95 38 19 130 22
148 4 6 -6 4 -21 -7 -41 -18 -37 -16 -37 -54 -17 -18 9 -31 11 -35 5 -3 -6
-17 -10 -31 -10 -13 0 -24 -4 -24 -10 0 -15 35 -29 58 -23 13 3 22 1 22 -6 0
-7 4 -10 9 -6 5 3 12 1 16 -5 3 -5 35 -10 69 -10 56 0 64 2 69 21 3 12 1 32
-5 44 -9 20 -6 29 21 62 42 51 40 73 -9 97 -22 11 -40 22 -40 26 0 4 -22 5
-48 2 -37 -3 -51 0 -62 13 -24 29 13 39 147 41 98 2 121 -1 116 -11 -6 -17
-56 -29 -83 -20 -24 8 -26 -2 -3 -27 17 -19 73 -25 73 -8 0 6 6 10 14 10 28 0
106 40 106 54 0 15 21 26 50 26 10 0 28 13 39 28 l20 29 -30 33 c-26 28 -30
38 -24 67 5 28 3 33 -14 33 -11 0 -22 4 -25 9 -9 13 45 20 70 9 27 -12 66 -4
88 18 22 22 20 34 -6 34 -40 0 -10 12 40 15 39 3 54 0 67 -15 15 -17 18 -17
35 -2 17 14 18 17 3 27 -23 17 -9 47 19 43 19 -2 23 -9 23 -40z m20892 -74
c28 -19 56 -34 62 -34 6 0 11 -4 11 -10 0 -5 14 -25 30 -44 38 -43 34 -85 -9
-87 l-26 -2 28 -4 c22 -4 27 -9 27 -34 0 -16 5 -29 10 -29 6 0 16 -12 22 -26
7 -14 28 -34 47 -44 26 -14 30 -19 17 -20 -32 0 -86 23 -86 37 0 10 -5 11 -19
3 -35 -18 -67 -11 -109 26 -43 36 -47 60 -9 50 31 -8 67 4 67 21 0 8 -11 24
-25 35 -19 15 -25 29 -25 59 0 33 -4 40 -25 45 -14 3 -32 4 -40 0 -10 -4 -19
3 -25 18 -5 14 -16 28 -24 33 -10 5 -13 16 -9 31 8 30 38 24 110 -24z m-8457
-74 c11 -6 27 -26 36 -46 9 -20 27 -40 40 -44 31 -12 37 -27 13 -33 -24 -6
-17 -27 10 -27 28 0 118 -47 125 -65 7 -20 0 -35 -19 -35 -20 0 -26 -27 -9
-41 13 -10 12 -14 -2 -30 -9 -10 -13 -23 -9 -29 5 -7 -4 -22 -21 -36 l-29 -24
32 -30 c18 -16 45 -33 60 -36 32 -8 143 -62 143 -70 0 -9 -52 -54 -63 -54 -5
0 -4 -6 3 -14 6 -8 18 -12 25 -10 7 3 22 -3 32 -13 10 -10 32 -23 48 -28 16
-6 31 -18 33 -28 3 -13 -4 -17 -32 -17 -38 0 -106 -28 -106 -43 0 -14 40 -77
67 -107 13 -14 19 -26 13 -28 -18 -6 -103 42 -123 71 -12 15 -30 27 -44 27
-29 0 -45 32 -38 73 12 66 12 72 -12 90 -19 15 -21 22 -12 33 9 12 5 14 -24
14 -67 0 -68 -35 -2 -60 l30 -11 -25 -19 c-26 -21 -66 -25 -89 -11 -7 5 -25 4
-42 -2 -24 -10 -33 -8 -58 11 -17 12 -40 22 -51 22 -26 0 -60 17 -60 30 0 6 7
10 15 10 22 0 18 18 -6 25 -13 4 -27 1 -38 -9 -10 -9 -32 -16 -50 -16 -19 0
-30 -4 -26 -10 3 -5 -2 -10 -12 -10 -15 0 -16 -2 -3 -11 12 -9 12 -10 -3 -5
-10 3 -23 6 -28 6 -5 0 -9 5 -9 10 0 6 9 10 20 10 17 0 18 3 9 24 -14 29 -42
36 -111 25 -38 -6 -54 -5 -60 4 -5 7 -1 16 8 22 51 32 65 47 53 61 -17 20 -69
44 -97 44 -21 0 -24 -4 -20 -25 4 -20 2 -24 -15 -21 -24 3 -36 26 -14 26 9 0
17 10 19 23 4 28 48 34 106 14 49 -17 56 -11 47 43 -6 34 -4 39 9 34 25 -10
19 10 -6 21 -33 14 -33 35 1 75 l29 35 61 -31 60 -31 -6 29 c-4 20 -1 33 8 38
22 14 4 22 -55 22 -43 1 -56 4 -56 16 0 11 3 12 13 4 7 -6 23 -9 34 -6 27 7
95 -14 88 -27 -6 -9 -5 -10 35 -14 46 -5 98 92 58 108 -8 4 -7 6 3 6 9 1 22 8
29 16 7 8 24 15 38 15 24 0 24 1 9 18 -18 19 -22 44 -10 55 8 9 11 9 33 -3z
m3426 -10 c25 -10 26 -11 10 -29 -10 -11 -30 -24 -45 -31 -16 -6 -33 -23 -40
-36 -14 -33 -15 -31 18 -26 31 4 73 -14 108 -47 28 -27 20 -51 -18 -51 -16 0
-29 -2 -29 -5 0 -3 23 -29 52 -58 l52 -52 -28 -3 c-16 -2 -33 1 -39 7 -14 14
-64 14 -72 1 -14 -22 -105 -1 -105 24 0 6 14 23 32 37 38 32 34 51 -20 77 -27
13 -43 15 -54 9 -19 -13 -71 0 -65 16 2 7 21 15 43 19 33 5 60 11 84 18 3 1
-5 5 -17 10 -29 12 -30 49 -3 78 11 12 20 28 20 37 0 18 72 21 116 5z m-11940
-20 c8 0 14 -7 14 -15 0 -13 6 -28 27 -64 2 -2 8 1 15 6 16 12 81 26 75 15 -2
-4 -13 -25 -23 -47 -20 -44 -65 -105 -76 -105 -5 0 -8 9 -8 19 0 11 -5 21 -12
23 -14 5 -38 97 -32 124 3 13 -2 29 -13 40 -17 17 -17 18 0 11 10 -4 25 -7 33
-7z m3615 -104 c-15 -17 -4 -109 11 -100 5 3 7 12 4 19 -8 21 14 32 74 37 49
4 97 19 153 49 26 14 52 -5 52 -38 l0 -28 67 3 c50 3 72 0 92 -13 14 -10 26
-20 26 -24 0 -13 -55 -31 -94 -31 -23 0 -50 -7 -60 -15 -11 -8 -30 -15 -43
-15 -16 0 -21 -4 -17 -15 4 -10 0 -15 -10 -15 -12 0 -16 -7 -14 -27 3 -26 0
-28 -36 -30 -24 -1 -43 -9 -48 -18 -12 -21 -30 -19 -51 6 -21 24 -47 19 -86
-17 -29 -27 -34 -28 -62 -14 -25 14 -89 2 -89 -16 0 -15 -18 -18 -44 -8 -17 6
-22 29 -8 37 4 2 2 2 -5 1 -7 -2 -15 1 -18 6 -10 16 -41 11 -59 -9 -21 -23
-67 -35 -96 -26 -32 10 -8 43 36 47 32 3 34 4 21 22 -13 18 -15 18 -58 -3 -24
-11 -53 -28 -64 -36 -19 -15 -19 -17 -2 -26 9 -6 17 -17 17 -24 0 -22 -53 -18
-73 5 -9 11 -23 20 -31 20 -8 0 -19 6 -23 13 -11 18 -66 52 -79 49 -6 -1 -17
5 -24 13 -7 9 -8 15 -2 15 9 0 34 50 37 75 5 41 29 86 48 89 71 15 128 16 149
3 36 -21 208 -7 229 19 6 8 26 14 43 14 17 0 38 5 46 10 8 5 35 10 59 10 37 0
42 -2 32 -14z m5471 -19 c-2 -9 2 -17 7 -17 6 0 8 -6 5 -13 -3 -8 6 -18 21
-25 33 -15 25 -28 -24 -43 -32 -9 -48 -8 -89 5 -47 16 -77 46 -53 54 6 2 11
12 11 22 0 22 24 32 63 25 16 -3 27 -1 27 6 0 6 8 9 18 7 10 -2 16 -11 14 -21z
m12540 -15 c18 -15 159 -38 287 -47 73 -5 93 -18 89 -53 -3 -23 -8 -26 -52
-28 -59 -4 -68 -10 -31 -24 39 -15 431 -18 446 -3 8 8 22 8 55 -2 23 -7 45
-10 48 -8 3 3 31 5 62 4 76 -1 84 7 32 36 -36 21 -51 24 -91 18 -54 -7 -120
10 -114 28 4 13 61 14 121 2 34 -7 38 -6 33 8 -11 30 54 37 109 11 19 -9 32
-19 30 -22 -6 -5 41 -71 64 -89 8 -7 31 -13 51 -13 59 0 101 -19 97 -44 -3
-19 -10 -21 -92 -24 -50 -2 -101 2 -115 7 -39 16 -803 13 -829 -3 -5 -3 -8
-19 -6 -35 7 -40 -17 -44 -106 -15 -89 29 -110 30 -139 3 -19 -18 -30 -20 -69
-15 -47 6 -86 31 -76 48 3 5 30 8 60 7 29 -2 57 0 61 4 3 4 1 7 -5 7 -18 0
-14 27 4 34 9 3 30 6 48 6 66 0 73 41 18 103 -54 59 -72 88 -72 114 0 20 2 21
33 11 17 -6 40 -18 49 -26z m-15654 -56 c48 -10 62 -18 62 -33 0 -11 -8 -14
-30 -11 -22 3 -35 -2 -50 -18 l-21 -22 25 -6 c42 -10 31 -28 -11 -20 -21 4
-47 7 -58 6 -20 -1 -55 24 -55 40 0 5 -7 16 -15 24 -22 23 -18 32 18 43 30 10
79 8 135 -3z m1165 -48 c32 -12 35 -24 7 -33 -11 -3 -20 -15 -20 -26 0 -10 -4
-19 -10 -19 -5 0 -10 -6 -10 -14 0 -11 -17 -13 -81 -10 -81 3 -109 14 -109 40
0 9 12 14 35 14 33 0 35 2 29 24 -3 14 -3 30 1 35 7 12 116 5 158 -11z
m-14365 -3 c33 -17 33 -20 6 -82 -13 -29 -18 -31 -48 -26 -28 4 -34 2 -39 -17
-9 -34 -59 -24 -70 15 -5 17 -14 38 -19 48 -13 26 -4 31 47 28 38 -2 49 2 68
23 12 14 22 26 23 26 0 0 15 -7 32 -15z m7267 -47 c-1 -16 5 -28 12 -28 7 0
13 -9 13 -19 0 -21 44 -41 89 -41 14 0 36 -3 48 -6 20 -5 20 -8 8 -21 -28 -27
-12 -43 58 -57 15 -4 27 -13 27 -22 0 -8 16 -24 35 -35 29 -17 35 -26 33 -51
-1 -16 -8 -34 -15 -40 -19 -15 -17 -75 3 -82 13 -5 15 -1 11 16 -5 18 0 26 20
36 35 16 52 15 59 -3 4 -8 18 -15 33 -15 38 0 72 -11 65 -21 -3 -5 7 -9 23 -9
40 0 103 -19 103 -31 0 -6 -5 -19 -10 -29 -15 -29 0 -30 54 -4 60 29 56 29
112 4 35 -16 44 -26 44 -45 0 -15 -6 -25 -14 -25 -8 0 -16 -4 -18 -10 -1 -5
-23 -11 -48 -13 -40 -3 -45 -6 -42 -25 2 -15 -2 -22 -13 -22 -8 0 -23 -4 -33
-10 -9 -5 -57 -26 -105 -46 -49 -20 -94 -42 -100 -49 -23 -22 -129 -75 -151
-75 -15 0 -33 -13 -50 -35 -19 -25 -35 -35 -54 -35 -31 0 -47 16 -82 79 -26
45 -19 64 20 54 10 -3 27 0 37 6 16 9 16 10 -7 11 -41 1 -70 11 -70 26 0 8 -5
14 -10 14 -15 0 -30 44 -23 69 4 15 13 21 34 21 15 0 31 -4 34 -10 10 -17 32
-11 38 10 3 13 10 18 21 14 21 -8 21 -34 0 -34 -11 0 -14 -8 -12 -27 3 -31 7
-32 100 -11 32 8 66 21 75 31 16 16 14 17 -36 17 -42 0 -61 6 -87 25 -18 14
-36 25 -41 25 -5 0 -16 9 -26 20 -14 16 -15 25 -6 41 13 25 9 30 -19 22 -24
-6 -29 -32 -12 -63 16 -31 -6 -33 -46 -6 -33 22 -39 24 -58 10 -48 -33 -90 -7
-68 42 13 28 52 33 72 9 10 -13 15 -13 21 -3 5 7 2 20 -7 30 -21 22 -9 58 19
59 37 1 -79 36 -140 42 -40 4 -62 2 -73 -7 -22 -19 -78 -28 -86 -14 -4 7 -2
14 4 16 18 6 4 22 -19 22 -11 0 -35 11 -53 25 -18 14 -35 22 -38 19 -3 -3 -22
-2 -42 1 -38 8 -48 29 -24 53 19 19 45 14 62 -10 9 -12 16 -17 16 -10 0 6 11
12 25 12 14 0 29 8 35 20 6 11 16 20 23 20 17 0 67 48 67 65 0 8 -4 17 -10 20
-16 10 -12 25 6 25 28 0 114 54 114 72 0 20 16 28 50 25 20 -2 25 -7 25 -29z
m551 -13 c-7 -42 -6 -45 16 -45 13 0 31 -7 42 -15 19 -15 14 -35 -10 -35 -8 0
-31 -7 -52 -16 -22 -10 -60 -16 -92 -15 -31 1 -76 -4 -100 -12 -69 -23 -98
-28 -104 -19 -7 12 45 40 85 45 42 5 122 41 140 63 7 9 23 20 36 25 15 5 21
14 17 24 -8 19 2 45 17 45 8 0 9 -14 5 -45z m11628 30 c80 -34 22 -100 -82
-93 -41 3 -46 6 -53 31 -10 36 -2 56 25 67 32 13 70 11 110 -5z m-10639 -35
c8 -26 -1 -40 -26 -40 -26 0 -26 -43 1 -68 12 -11 21 -34 23 -57 2 -31 -2 -41
-20 -50 -17 -9 -20 -14 -11 -23 9 -9 6 -12 -13 -12 -14 0 -34 9 -44 20 -19 21
-75 28 -75 10 0 -5 11 -10 25 -10 20 0 25 -5 25 -26 0 -33 -42 -51 -142 -60
-71 -6 -77 -5 -88 15 -15 30 2 51 37 45 14 -3 34 -2 44 1 29 10 5 35 -32 35
-19 0 -29 5 -29 15 0 11 11 15 39 15 39 0 51 11 51 48 0 12 -3 13 -12 4 -19
-19 -124 -16 -132 4 -11 30 5 37 70 30 39 -4 65 -3 69 4 10 17 51 11 70 -10
23 -25 35 -25 35 -1 0 13 9 21 30 26 38 8 40 37 3 52 l-28 11 35 1 c24 1 39 8
48 21 16 26 39 26 47 0z m16785 -91 c38 -29 108 -43 154 -31 l28 8 -37 17
c-21 10 -36 19 -34 21 2 2 37 6 77 9 l72 6 35 -35 c19 -19 35 -39 35 -44 0 -5
10 -15 22 -21 20 -11 20 -12 4 -24 -11 -8 -13 -16 -7 -19 13 -8 8 -53 -8 -84
-19 -35 -78 -27 -106 13 -16 24 -27 30 -53 28 -30 -1 -35 3 -53 40 -24 48 -68
73 -148 86 -59 9 -81 25 -81 57 0 22 2 22 33 12 17 -6 48 -24 67 -39z m2222
-40 c21 -11 45 -19 56 -19 19 0 42 -18 42 -32 0 -4 -42 -8 -94 -7 -52 0 -103
-4 -114 -10 -26 -14 -142 -14 -162 -1 -13 9 -13 11 0 20 8 5 21 10 28 10 6 0
12 5 12 10 0 7 22 8 63 4 37 -3 73 -1 91 5 28 11 28 12 10 33 -19 20 -19 21 6
13 14 -4 42 -16 62 -26z m3909 1 c29 0 109 -19 166 -40 20 -7 33 -19 35 -33 2
-15 17 -26 52 -39 59 -21 96 -52 79 -69 -6 -6 -33 -11 -59 -11 -27 -1 -41 -3
-31 -5 9 -3 17 -9 17 -15 0 -19 -78 -1 -125 29 -37 22 -45 33 -43 53 2 20 9
26 37 28 l34 3 -33 20 c-21 13 -42 18 -56 15 -28 -7 -30 -18 -8 -40 18 -18 3
-21 -27 -6 -14 8 -25 6 -46 -7 -14 -10 -37 -16 -50 -15 -15 2 -34 -8 -58 -31
-33 -32 -40 -34 -68 -26 -34 9 -98 75 -91 94 7 18 56 43 99 50 87 14 85 13 78
46 l-6 30 38 -15 c21 -9 50 -16 66 -16z m-11122 -234 c15 -14 38 -26 52 -26
30 0 109 -36 109 -49 0 -15 -62 -24 -130 -19 l-59 4 29 -18 c25 -15 28 -21 21
-40 -12 -32 -72 -30 -107 2 -24 23 -25 23 -59 7 -47 -22 -73 -21 -115 4 -28
18 -49 22 -105 20 -63 -1 -133 14 -151 32 -10 10 61 37 97 37 18 0 37 7 43 16
10 13 16 14 39 3 19 -9 24 -16 17 -24 -7 -8 -4 -17 9 -29 17 -16 19 -16 24 5
5 19 10 21 49 15 110 -16 188 -18 188 -5 0 17 -60 79 -76 79 -17 0 -45 30 -39
40 9 15 135 -26 164 -54z m-4300 -91 c49 -39 42 -37 133 -40 82 -3 100 -9 96
-32 -2 -14 4 -18 27 -19 17 0 39 -4 50 -9 26 -11 56 -41 48 -49 -4 -3 0 -6 8
-6 26 0 120 -50 114 -60 -10 -16 -50 -12 -76 9 -32 25 -96 31 -139 13 -20 -8
-52 -12 -77 -9 -36 4 -43 2 -43 -12 0 -10 12 -22 28 -27 24 -9 21 -10 -27 -11
-43 -1 -64 5 -100 27 -25 15 -72 34 -104 41 -48 10 -61 17 -69 38 -13 34 -15
91 -3 91 24 0 41 -12 56 -39 16 -27 20 -28 65 -24 57 7 56 6 49 25 -3 8 -27
21 -52 29 -56 18 -93 60 -73 84 19 23 41 18 89 -20z m-12551 -58 c2 -11 -3
-17 -16 -17 -38 0 -90 -30 -111 -63 -25 -41 -117 -95 -134 -78 -15 15 8 62 27
55 15 -6 56 49 71 95 6 21 12 23 49 18 22 -3 50 -1 61 3 29 12 49 7 53 -13z
m18862 -17 c9 -5 48 -10 86 -11 38 -1 80 -6 93 -11 23 -8 23 -9 5 -23 -10 -8
-40 -15 -65 -15 -75 0 -106 -39 -42 -53 16 -4 39 -16 53 -28 l25 -21 -27 6
-28 6 20 -35 c16 -28 17 -35 5 -35 -7 0 -16 4 -19 9 -3 5 -18 12 -33 16 -15 3
-35 16 -45 28 -31 35 -71 57 -106 57 -18 0 -49 7 -69 15 -48 20 -63 18 -35 -5
12 -10 18 -21 13 -25 -6 -3 -88 -6 -183 -6 -95 -1 -221 -1 -279 -2 -80 0 -111
3 -128 15 -17 12 -31 13 -69 6 -26 -5 -65 -10 -87 -12 -109 -7 -102 -5 -81
-21 21 -16 18 -18 -29 -15 -60 3 -64 7 -61 61 3 65 16 78 53 51 36 -26 83 -39
83 -23 0 6 -7 11 -16 11 -8 0 -12 5 -9 10 9 15 63 12 120 -6 74 -23 154 -33
149 -19 -3 7 -19 18 -36 26 -17 8 -31 19 -32 24 -1 12 51 15 81 4 12 -4 50 -5
85 -1 76 9 273 -9 290 -26 9 -9 8 -12 -5 -12 -9 0 -17 -4 -17 -10 0 -16 47
-23 71 -10 21 12 21 14 6 25 -25 18 -21 25 16 25 17 0 42 8 54 18 26 19 163
28 193 12z m-1623 -42 c8 -6 11 -18 8 -25 -2 -8 0 -23 5 -33 9 -16 5 -19 -30
-25 -41 -7 -53 -28 -24 -39 9 -4 14 -9 11 -13 -4 -3 -2 -12 4 -19 8 -10 7 -18
-5 -30 -13 -13 -22 -14 -44 -6 -15 6 -41 13 -58 17 -17 3 -43 18 -57 33 -25
26 -26 29 -11 50 10 14 26 22 44 22 16 0 32 5 35 10 3 6 1 10 -4 10 -6 0 -11
7 -11 15 0 9 9 15 24 15 16 0 26 7 29 21 5 18 11 21 38 15 18 -3 38 -11 46
-18z m-25890 -2 c-3 -8 5 -18 19 -25 28 -12 30 -23 8 -42 -12 -10 -24 -10 -60
-1 -31 8 -51 9 -64 2 -10 -5 -28 -10 -40 -10 -12 0 -54 -16 -93 -34 -89 -43
-156 -61 -170 -47 -11 11 8 41 27 41 6 0 29 9 51 20 22 10 52 22 67 25 19 4
30 13 34 31 6 25 10 26 56 22 34 -4 65 0 97 13 56 22 75 23 68 5z m20073 -5
c69 -9 156 -47 152 -66 -1 -6 -48 -10 -114 -10 -78 -1 -113 -5 -116 -13 -2 -7
-14 -12 -27 -12 -44 0 -55 10 -55 51 0 44 30 73 68 64 13 -3 54 -10 92 -14z
m9990 -128 c43 -29 54 -43 36 -43 -9 0 -16 -3 -16 -7 0 -5 -3 -18 -6 -30 -8
-29 16 -31 33 -4 11 17 21 19 90 16 42 -3 91 -9 108 -15 31 -10 32 -12 21 -45
l-11 -35 -63 0 c-39 0 -71 -6 -85 -15 -18 -11 -31 -12 -57 -5 -46 13 -50 13
-50 -5 0 -19 -46 -19 -80 0 -28 16 -90 20 -90 6 0 -6 -24 -11 -52 -13 -44 -2
-53 -6 -53 -22 0 -14 8 -19 36 -21 20 -1 56 -11 80 -23 24 -11 69 -23 99 -25
30 -3 75 -12 100 -20 25 -8 62 -18 83 -22 37 -6 116 -64 88 -65 -7 0 -22 -10
-32 -21 -20 -23 -24 -23 -146 -3 -27 4 -43 3 -43 -3 0 -6 17 -13 38 -17 21 -3
47 -15 58 -27 l19 -21 -43 7 c-24 4 -74 4 -113 0 -62 -6 -69 -9 -64 -25 5 -17
3 -18 -27 -9 -43 12 -58 11 -58 -2 0 -6 7 -8 16 -5 9 4 22 0 28 -7 6 -8 32
-22 58 -31 25 -9 52 -24 58 -31 19 -23 4 -45 -30 -45 -26 0 -31 -3 -28 -21 2
-13 -5 -26 -17 -33 -11 -6 -22 -12 -24 -13 -2 -2 4 -12 13 -22 25 -27 12 -41
-35 -41 -33 0 -43 5 -56 28 -9 16 -29 34 -45 41 -15 7 -28 19 -28 27 0 18 -18
18 -55 -2 -45 -25 -81 -18 -145 27 -48 33 -65 40 -96 37 -22 -2 -38 -7 -37
-13 1 -5 4 -27 8 -47 7 -37 6 -38 -22 -38 -21 0 -33 7 -43 25 -8 14 -29 35
-47 46 -18 11 -34 25 -34 30 -1 5 -2 15 -3 22 -1 6 2 18 7 24 6 9 1 16 -18 23
-14 5 -31 10 -37 10 -5 0 -23 9 -39 20 -15 12 -50 27 -77 35 -27 8 -61 24 -75
35 -30 24 -53 26 -61 4 -6 -15 -8 -15 -31 0 -28 18 -49 21 -39 5 4 -8 0 -9
-15 -4 -12 4 -21 2 -21 -4 0 -16 -46 -13 -60 4 -6 8 -22 17 -33 21 -31 9 -56
34 -51 49 3 8 -7 14 -30 18 -22 3 -45 17 -60 34 -21 25 -30 28 -75 26 -28 -1
-69 4 -92 12 -55 20 -75 20 -60 1 7 -8 8 -17 4 -19 -17 -11 -177 -28 -201 -22
-19 5 -23 3 -19 -9 4 -9 2 -16 -4 -16 -6 0 -7 -6 -1 -16 10 -18 4 -61 -9 -70
-5 -3 -25 0 -45 6 -19 7 -74 13 -121 14 -93 1 -115 14 -63 37 29 13 40 29 21
29 -5 0 -19 16 -32 36 -22 36 -22 37 -4 50 18 14 18 14 0 28 -11 8 -34 11 -60
8 -44 -5 -111 21 -100 39 10 15 -5 49 -20 49 -8 0 -23 10 -34 22 -16 17 -18
24 -9 35 7 8 22 13 34 10 14 -2 25 2 29 11 16 43 205 -41 205 -92 0 -15 3 -17
12 -8 16 16 50 15 74 -3 19 -14 19 -14 -2 -15 -11 0 -23 -3 -26 -6 -9 -9 21
-61 40 -69 54 -22 75 -24 104 -9 20 11 42 14 65 9 24 -4 33 -3 28 5 -11 17 23
60 48 60 29 0 42 9 72 50 16 22 25 47 25 71 0 20 6 42 14 48 19 16 192 7 237
-12 47 -21 190 -47 264 -48 33 -1 92 -5 130 -10 40 -5 83 -6 100 -1 17 5 63 5
109 -1 56 -7 89 -6 110 1 17 6 92 14 166 16 134 5 260 23 355 51 49 14 80 22
100 24 6 0 22 -7 35 -16z m-2436 -73 c25 -10 57 -21 70 -23 32 -4 66 -35 66
-59 0 -40 -73 -44 -155 -8 -22 10 -53 22 -70 26 -16 5 -35 21 -42 34 -12 25
-12 25 32 28 25 2 45 7 45 13 0 12 1 12 54 -11z m-12828 -134 c19 -3 44 -27
44 -43 0 -17 -88 -56 -109 -48 -9 4 -22 -3 -31 -15 -16 -21 -16 -21 -40 -2
l-23 19 22 32 c12 17 27 31 32 31 5 0 9 6 9 14 0 25 18 27 96 12z m-16915
-202 c16 -19 -2 -34 -42 -34 -14 0 -34 -9 -44 -20 -10 -11 -26 -20 -36 -20
-28 0 -49 -11 -49 -26 0 -7 -13 -20 -29 -28 -28 -15 -42 -35 -46 -68 -2 -23 6
-22 58 1 50 23 84 28 116 17 19 -7 28 -3 46 20 21 25 24 27 30 12 4 -10 17
-18 29 -18 30 1 81 32 81 50 0 8 10 16 23 18 12 2 22 -1 22 -7 0 -6 -8 -11
-17 -11 -17 -1 -17 -1 0 -11 13 -8 25 -4 50 15 19 15 44 26 57 26 20 0 22 -4
17 -34 -10 -60 -37 -107 -61 -105 -12 1 -28 -1 -36 -4 -24 -9 -98 -16 -104 -9
-3 3 -1 11 6 19 14 18 5 26 -21 18 -16 -5 -19 -12 -14 -40 4 -27 0 -38 -21
-60 -26 -25 -28 -26 -46 -10 -13 11 -20 13 -25 5 -5 -8 -12 -7 -23 3 -22 19
-72 28 -66 12 5 -12 -36 -35 -64 -35 -16 -1 -16 -2 1 -14 24 -19 21 -32 -10
-48 -48 -23 -83 -2 -51 30 7 7 8 12 2 12 -5 0 -18 -13 -27 -30 -10 -16 -22
-30 -28 -30 -5 0 -9 -4 -9 -10 0 -5 6 -10 14 -10 23 0 30 -20 12 -38 -14 -15
-17 -14 -36 6 -12 12 -25 22 -31 22 -9 0 -91 -42 -114 -59 -5 -4 -26 -14 -45
-21 -19 -8 -46 -22 -59 -32 -13 -10 -30 -18 -38 -18 -9 0 -24 -11 -34 -24 -24
-30 -144 -79 -176 -71 -28 7 -31 25 -3 25 22 0 27 15 7 23 -13 5 -47 -14 -47
-26 0 -10 -87 -97 -97 -97 -14 0 -31 -48 -21 -58 13 -13 2 -32 -18 -32 -8 0
-14 9 -14 20 0 21 -24 28 -35 10 -13 -22 -23 2 -12 30 6 16 8 32 5 35 -11 11
-88 -15 -88 -30 0 -7 -13 -23 -30 -35 -25 -18 -30 -19 -30 -6 0 11 -9 16 -30
16 -16 0 -30 5 -30 10 0 18 -31 10 -55 -14 -13 -14 -34 -27 -45 -31 -16 -5
-20 -2 -20 19 0 17 17 43 50 77 48 49 66 75 36 50 -9 -7 -34 -11 -59 -8 -35 3
-44 1 -40 -10 6 -16 -26 -55 -39 -47 -5 3 -24 -4 -43 -15 -44 -26 -48 -5 -5
24 17 11 30 29 30 40 0 11 9 35 21 54 11 18 17 36 13 40 -4 3 -9 0 -11 -6 -3
-7 -16 -13 -30 -13 -18 0 -24 5 -21 18 3 13 12 16 45 14 46 -4 59 8 42 36 -17
28 -5 49 33 57 43 9 88 36 88 52 0 7 3 13 8 13 4 0 16 16 26 35 17 31 24 35
59 35 25 0 44 6 52 17 17 23 38 7 31 -23 -4 -14 -2 -24 4 -24 5 0 10 -7 10
-15 0 -14 3 -14 30 0 26 13 28 18 20 41 -14 35 -12 44 5 38 13 -6 20 6 16 29
-2 11 37 47 52 47 7 0 18 5 24 11 13 13 69 8 66 -6 -1 -5 -9 -27 -17 -47 -12
-27 -13 -39 -4 -44 7 -4 8 -3 4 4 -4 7 -1 12 6 12 15 0 78 51 78 63 0 5 -9 5
-20 2 -15 -5 -20 -2 -20 13 0 26 32 24 43 -2 7 -18 9 -18 32 4 14 13 25 31 25
39 0 26 40 44 100 46 30 1 55 7 55 13 0 10 43 52 53 52 6 0 31 -33 32 -41 0
-12 -59 -67 -78 -73 -23 -8 -48 -42 -58 -80 -9 -38 13 -33 33 9 11 23 25 36
44 40 16 4 27 11 26 17 -1 6 4 13 11 15 6 3 12 -3 12 -12 0 -13 4 -14 22 -4
13 7 31 23 41 36 23 28 37 30 37 3 0 -27 29 -26 77 3 l38 22 -57 9 c-62 9 -75
22 -30 31 74 16 113 29 123 41 18 22 49 17 59 -11 9 -25 11 -25 35 -9 14 9 25
22 25 29 0 7 27 22 60 34 32 12 62 26 65 31 9 14 21 12 36 -6z m24847 -32 c48
-15 72 -42 37 -42 -9 0 -15 -9 -15 -25 0 -30 -11 -31 -103 -6 -75 21 -111 50
-75 63 11 5 31 5 45 1 21 -5 25 -3 20 10 -7 19 3 29 22 22 9 -4 40 -14 69 -23z
m-23758 -84 c0 -6 -7 -18 -15 -27 -8 -9 -27 -31 -41 -49 -22 -27 -31 -32 -54
-27 -16 4 -43 0 -64 -9 -36 -15 -37 -15 -46 9 -8 20 -17 25 -44 25 -41 0 -56
18 -31 37 24 17 35 17 35 -1 0 -25 24 -24 59 2 29 22 35 23 45 10 12 -16 35
-12 51 8 6 8 28 18 50 23 55 12 55 12 55 -1z m26990 -8 c10 -5 20 -20 24 -32
3 -13 18 -32 34 -42 25 -17 27 -22 18 -42 -6 -13 -18 -26 -27 -29 -9 -3 -24
-14 -34 -25 -22 -24 -43 -25 -81 -5 -20 10 -23 15 -11 15 9 0 17 4 17 9 0 13
-37 20 -47 10 -5 -5 -23 -13 -40 -18 -35 -10 -63 2 -63 28 0 11 -12 24 -30 31
-34 14 -53 35 -24 27 11 -4 33 -9 49 -12 l30 -6 -30 25 c-25 22 -28 28 -15 36
18 12 25 12 75 0 25 -6 44 -5 49 0 6 6 18 10 27 10 9 0 19 7 23 15 6 17 29 19
56 5z m-20511 -55 c11 -11 -20 -55 -39 -55 -17 0 -20 -7 -20 -40 0 -44 6 -49
26 -22 10 13 15 14 25 5 6 -6 9 -19 5 -29 -6 -14 -16 -16 -72 -11 -37 4 -72
11 -79 17 -9 8 -14 5 -18 -11 -4 -16 -11 -20 -27 -16 -12 3 -33 1 -47 -4 -15
-5 -31 -5 -42 1 -21 11 -61 -12 -61 -36 0 -8 -6 -14 -14 -14 -8 0 -17 -6 -19
-12 -4 -10 -6 -10 -6 -1 -1 6 4 15 9 18 6 3 10 22 10 41 0 19 5 34 11 34 6 0
3 7 -5 16 -20 19 -12 34 18 34 16 0 26 7 29 21 3 12 10 19 14 16 5 -3 42 -1
83 4 54 6 81 15 104 34 25 21 38 24 71 20 21 -3 41 -8 44 -10z m18651 -172
c14 -9 30 -23 35 -29 6 -7 28 -14 50 -17 22 -3 58 -10 80 -16 22 -6 52 -13 67
-16 15 -3 42 -18 60 -34 18 -15 51 -38 74 -49 l41 -21 22 50 c24 52 32 56 74
37 21 -10 27 -20 27 -45 0 -17 -6 -33 -12 -36 -10 -4 -10 -7 0 -18 21 -23 13
-35 -40 -58 -78 -34 -107 -25 -162 53 -53 74 -78 87 -144 79 -27 -3 -95 0
-151 6 -96 12 -104 11 -119 -6 -22 -24 -79 -27 -79 -4 0 9 5 22 11 30 5 7 11
24 12 38 1 31 12 41 60 58 51 19 65 18 94 -2z m2028 -151 c25 -26 51 -57 102
-124 12 -16 28 -28 35 -28 30 0 84 -34 89 -56 9 -33 58 -56 100 -49 27 5 42 1
75 -20 39 -27 43 -27 111 -17 51 8 76 7 95 -1 28 -13 33 -35 10 -43 -26 -10
12 -51 72 -76 56 -23 91 -58 56 -58 -10 0 -39 11 -65 24 -35 17 -57 21 -86 17
-39 -6 -39 -7 -38 -47 1 -41 1 -41 -27 -31 -16 5 -47 7 -70 4 -23 -2 -64 1
-92 7 -48 11 -50 13 -47 43 3 28 0 33 -25 39 -85 19 -140 40 -158 60 -11 12
-38 27 -60 33 -22 6 -60 25 -84 41 -25 17 -55 33 -67 36 -21 5 -40 31 -30 41
2 2 31 -7 65 -21 33 -14 72 -26 86 -26 22 0 24 3 15 19 -5 11 -10 37 -10 58 0
41 -29 77 -92 116 -22 14 -28 25 -28 52 0 29 4 35 21 35 11 0 33 -13 47 -28z
m-19210 -49 c2 -15 -5 -26 -22 -35 l-26 -14 21 -38 20 -39 -49 5 c-40 4 -51 1
-61 -14 -6 -10 -16 -18 -22 -18 -6 0 -19 -10 -29 -22 l-18 -23 -22 28 c-12 15
-30 27 -41 27 -10 0 -19 5 -19 11 0 6 6 9 13 7 6 -3 30 17 52 43 37 45 43 49
82 46 22 -1 39 2 36 6 -3 4 3 19 12 33 21 32 68 31 73 -3z m1393 -390 c16 -28
16 -33 4 -33 -8 0 -15 5 -15 12 0 7 -15 -5 -34 -25 -18 -20 -40 -37 -48 -37
-8 0 -32 -8 -54 -18 -21 -11 -68 -27 -104 -37 -36 -9 -76 -23 -90 -30 -14 -7
-52 -16 -85 -20 -33 -4 -68 -11 -77 -16 -23 -12 -34 8 -15 29 9 9 18 29 22 44
6 25 3 29 -49 53 -31 15 -56 30 -56 35 0 22 23 18 58 -10 36 -29 40 -30 88
-20 27 6 69 13 94 17 24 3 61 18 80 32 30 21 47 26 98 26 34 -1 62 3 62 7 0 4
13 8 29 8 17 0 33 5 36 11 12 18 38 5 56 -28z m19897 25 c8 -8 8 -15 1 -24
-12 -15 22 -40 108 -79 73 -32 116 -71 90 -81 -9 -3 -14 -10 -11 -15 9 -14 -6
-11 -65 17 -75 36 -113 65 -106 82 4 12 -3 14 -41 8 -64 -8 -90 1 -113 40
l-20 34 39 0 c29 0 40 4 40 15 0 18 60 21 78 3z m-25483 -132 c11 -8 16 -20
12 -29 -8 -21 14 -37 41 -30 15 3 24 0 28 -12 8 -20 -11 -35 -43 -35 -12 0
-26 -6 -30 -12 -18 -28 -52 -50 -65 -41 -7 4 -24 8 -38 8 -20 0 -25 5 -25 25
0 17 6 26 20 28 21 3 80 94 68 106 -12 12 13 6 32 -8z m2873 -152 c22 -10 32
-23 32 -38 0 -26 -31 -59 -52 -54 -15 3 -58 -31 -58 -47 0 -5 -5 -17 -10 -25
-8 -13 -11 -12 -23 4 -13 18 -15 17 -40 -8 -35 -35 -50 -34 -42 4 6 26 4 30
-14 30 -23 0 -35 15 -26 31 5 7 14 5 30 -5 21 -14 24 -12 60 24 23 23 33 40
26 44 -16 10 -14 36 3 42 21 8 56 -31 56 -62 0 -16 5 -24 13 -21 7 3 11 21 10
51 -1 25 0 46 1 46 2 0 17 -7 34 -16z m22918 -55 c35 -22 102 -99 86 -99 -16
0 -1 -39 17 -45 9 -2 36 -23 60 -45 23 -22 70 -60 103 -84 59 -44 95 -83 85
-92 -8 -8 -92 33 -117 58 -14 14 -36 29 -50 33 -39 11 -90 45 -90 59 0 7 -9
21 -20 31 -21 19 -27 45 -10 45 5 0 7 7 4 15 -4 8 -12 15 -18 15 -7 0 -36 11
-64 25 -55 26 -64 46 -40 85 16 24 13 24 54 -1z m-23438 -365 c23 -16 29 -48
12 -59 -5 -3 -10 -11 -10 -17 0 -13 94 -2 120 14 26 17 50 -6 50 -48 0 -33 12
-45 25 -24 9 15 55 -11 55 -31 0 -26 19 -33 39 -15 24 22 41 20 41 -4 0 -14
-6 -20 -17 -18 -10 2 -17 -3 -15 -9 1 -7 -5 -13 -14 -13 -11 0 -14 -6 -9 -21
5 -15 4 -19 -4 -15 -19 12 -36 -5 -19 -18 8 -6 17 -25 21 -43 5 -26 2 -35 -15
-47 -12 -8 -26 -12 -31 -9 -6 3 -16 -1 -22 -11 -10 -14 -23 -15 -70 -10 -63 8
-87 24 -81 57 1 12 1 16 -1 10 -3 -7 -9 -13 -14 -13 -13 0 -11 34 2 47 20 20
0 52 -40 63 -41 11 -81 47 -66 58 41 29 40 72 -1 72 -28 0 -43 25 -25 43 6 6
11 21 11 34 0 21 22 42 45 43 6 0 21 -7 33 -16z m-1922 -80 c2 -44 4 -45 44
-42 45 2 58 -5 41 -25 -7 -9 -41 -16 -86 -20 -41 -3 -79 -8 -85 -12 -5 -3 -10
-19 -10 -34 0 -26 -4 -29 -37 -33 -21 -3 -39 -4 -41 -3 -2 1 7 19 19 40 20 34
21 38 6 47 -27 14 -20 25 21 33 47 9 90 34 98 58 7 23 29 17 30 -9z m-3681
-224 c-3 -5 -12 -10 -19 -10 -7 0 -19 -19 -26 -42 -7 -24 -17 -47 -22 -52 -28
-33 8 -97 43 -75 24 15 51 11 47 -8 -2 -13 -17 -20 -52 -25 -28 -4 -53 -14
-58 -22 -14 -25 -29 -19 -22 9 7 30 -2 75 -16 75 -6 0 -10 -11 -10 -25 0 -30
-36 -92 -42 -73 -4 10 -10 9 -27 -6 -11 -11 -21 -24 -21 -31 0 -20 -38 -47
-65 -47 -14 0 -36 9 -49 21 -12 11 -32 21 -44 21 -22 0 -22 0 4 39 14 22 31
38 37 35 17 -6 115 91 119 118 2 15 11 24 27 26 15 2 21 0 17 -7 -13 -21 6
-11 46 24 47 39 150 82 133 55z m29803 -513 c17 -7 56 -31 86 -52 51 -38 55
-43 58 -88 2 -27 2 -50 0 -52 -9 -8 -128 28 -156 47 -31 22 -65 56 -67 67 -10
55 -8 72 14 81 30 12 30 12 65 -3z"/>
<path d="M13060 9330 c-8 -5 -23 -7 -33 -4 -9 3 -33 0 -52 -6 -24 -8 -45 -9
-63 -2 -19 6 -37 5 -60 -5 -33 -13 -33 -13 -15 -38 18 -25 19 -25 103 -9 26 5
30 3 30 -16 0 -18 -4 -21 -24 -16 -18 4 -28 0 -40 -19 -9 -14 -23 -25 -31 -25
-29 0 -15 -18 18 -24 22 -4 48 0 72 10 21 9 51 13 65 10 47 -9 71 37 25 48
-39 10 -32 36 10 36 19 0 35 4 35 9 0 5 9 13 20 16 11 3 20 15 20 26 0 15 -7
19 -32 19 -18 0 -40 -5 -48 -10z"/>
<path d="M11550 9139 c-31 -27 -40 -30 -87 -26 -45 3 -55 0 -73 -20 -14 -16
-31 -23 -55 -23 -44 0 -47 -20 -2 -21 17 0 46 -3 62 -6 43 -7 50 -7 143 5 69
8 90 15 120 39 47 38 51 53 14 53 -16 0 -35 7 -42 15 -18 22 -41 18 -80 -16z"/>
<path d="M11148 8969 c-70 -22 -144 -55 -152 -68 -4 -6 -18 -11 -32 -11 -51 0
-86 -35 -42 -42 35 -5 32 -33 -7 -72 l-36 -37 -27 19 c-29 20 -86 35 -96 25
-7 -7 40 -33 61 -33 9 0 13 -6 10 -15 -4 -8 -2 -17 3 -20 6 -4 10 -10 10 -16
0 -14 -28 -11 -33 4 -3 9 -7 9 -20 -2 -9 -7 -26 -11 -37 -8 -23 6 -33 -5 -24
-28 5 -11 16 -15 38 -14 17 2 38 -1 46 -6 8 -5 23 -8 33 -7 12 2 17 -3 17 -22
0 -21 4 -24 31 -23 21 2 35 10 47 29 18 30 11 48 -12 29 -17 -14 -22 -7 -25
38 -2 38 11 51 52 51 20 0 27 -5 27 -20 0 -13 5 -18 15 -14 11 4 12 10 6 18
-6 7 -13 31 -17 54 -6 41 -6 42 32 59 22 9 43 16 47 15 18 -5 114 33 140 55
16 13 34 23 41 23 20 0 78 47 67 54 -17 11 -105 2 -163 -15z"/>
<path d="M12767 8632 c-15 -9 -30 -25 -33 -35 -5 -16 -12 -18 -41 -12 -48 9
-89 -10 -102 -46 -13 -37 3 -39 35 -4 13 14 32 25 44 25 21 0 27 -14 10 -25
-18 -11 -11 -25 13 -25 17 0 19 2 7 10 -19 12 -11 19 27 24 17 1 35 6 42 10 6
4 11 2 11 -3 0 -6 7 -11 15 -11 18 0 20 -31 4 -47 -9 -9 -8 -20 5 -46 18 -39
32 -47 82 -47 48 0 42 18 -11 31 -55 14 -54 33 1 37 65 4 90 12 73 23 -10 6
-7 9 13 9 15 0 29 4 32 9 6 10 -26 21 -62 21 -12 0 -26 8 -29 17 -4 10 -19 28
-34 41 -16 12 -31 32 -34 42 -8 24 -31 25 -68 2z"/>
</g>
</svg>
